<mxfile host="Electron" agent="Mozilla/5.0 (Windows NT 10.0; Win64; x64) AppleWebKit/537.36 (KHTML, like Gecko) draw.io/27.0.9 Chrome/134.0.6998.205 Electron/35.4.0 Safari/537.36" version="27.0.9">
  <diagram name="페이지-1" id="FJpKzG_1mTYuXgxzu5p_">
    <mxGraphModel dx="2066" dy="1201" grid="1" gridSize="10" guides="1" tooltips="1" connect="1" arrows="1" fold="1" page="1" pageScale="1" pageWidth="827" pageHeight="1169" math="0" shadow="0">
      <root>
        <mxCell id="0" />
        <mxCell id="1" parent="0" />
        <mxCell id="kuuKow88mQhfNLiTfmsI-1" value="&lt;h1 style=&quot;margin-top: 0px;&quot;&gt;유스케이스&lt;/h1&gt;&lt;div&gt;1. 컴퓨터 측에서 가위-바위- 순으론 빠르게 이미지가 전환된다.&lt;/div&gt;&lt;div&gt;2. 사용자 측에서 가위/바위/보 버튼 중 하나를 클릭한다.&lt;/div&gt;&lt;div&gt;3.버튼 클릭 시 컴퓨터 측 이미지 전환이 멈추고 사용자가 클릭한 버튼과 비교해 승패를 가린다.&lt;/div&gt;&lt;div&gt;4.&amp;nbsp; 가위/바위/보 의 값은 각각 -1/0/1 이다. 사용자의 값 - 컴퓨터의 값 을 계산해 -2 이거나 1이면 사용자의 승리, 2거나 -1이면 컴퓨터의 승리이다.&lt;/div&gt;&lt;div&gt;5. 사용자와 컴퓨터의 승리 카운트를 계산해 먼저 2승을 한 측이 최종 우승한다.&lt;/div&gt;" style="text;html=1;whiteSpace=wrap;overflow=hidden;rounded=0;" parent="1" vertex="1">
          <mxGeometry x="40" y="40" width="400" height="240" as="geometry" />
        </mxCell>
        <mxCell id="gho8Om7t9bEZ4jZN1c5o-2" value="" style="ellipse;html=1;shape=startState;fillColor=#000000;strokeColor=#ff0000;" vertex="1" parent="1">
          <mxGeometry x="225" y="320" width="30" height="30" as="geometry" />
        </mxCell>
        <mxCell id="gho8Om7t9bEZ4jZN1c5o-3" value="" style="edgeStyle=orthogonalEdgeStyle;html=1;verticalAlign=bottom;endArrow=open;endSize=8;strokeColor=#ff0000;rounded=0;" edge="1" source="gho8Om7t9bEZ4jZN1c5o-2" parent="1">
          <mxGeometry relative="1" as="geometry">
            <mxPoint x="240" y="410" as="targetPoint" />
          </mxGeometry>
        </mxCell>
        <mxCell id="gho8Om7t9bEZ4jZN1c5o-7" value="" style="edgeStyle=orthogonalEdgeStyle;rounded=0;orthogonalLoop=1;jettySize=auto;html=1;" edge="1" parent="1" source="gho8Om7t9bEZ4jZN1c5o-5" target="gho8Om7t9bEZ4jZN1c5o-6">
          <mxGeometry relative="1" as="geometry" />
        </mxCell>
        <mxCell id="gho8Om7t9bEZ4jZN1c5o-5" value="컴퓨터 이미지 인터벌" style="ellipse;whiteSpace=wrap;html=1;aspect=fixed;" vertex="1" parent="1">
          <mxGeometry x="200" y="410" width="80" height="80" as="geometry" />
        </mxCell>
        <mxCell id="gho8Om7t9bEZ4jZN1c5o-9" value="" style="edgeStyle=orthogonalEdgeStyle;rounded=0;orthogonalLoop=1;jettySize=auto;html=1;" edge="1" parent="1" source="gho8Om7t9bEZ4jZN1c5o-6" target="gho8Om7t9bEZ4jZN1c5o-8">
          <mxGeometry relative="1" as="geometry" />
        </mxCell>
        <mxCell id="gho8Om7t9bEZ4jZN1c5o-6" value="사용자 가위/바위/보 버튼 클릭 및 인터벌 멈춤" style="ellipse;whiteSpace=wrap;html=1;" vertex="1" parent="1">
          <mxGeometry x="200" y="570" width="80" height="80" as="geometry" />
        </mxCell>
        <mxCell id="gho8Om7t9bEZ4jZN1c5o-11" value="" style="edgeStyle=orthogonalEdgeStyle;rounded=0;orthogonalLoop=1;jettySize=auto;html=1;" edge="1" parent="1" source="gho8Om7t9bEZ4jZN1c5o-8" target="gho8Om7t9bEZ4jZN1c5o-10">
          <mxGeometry relative="1" as="geometry" />
        </mxCell>
        <mxCell id="gho8Om7t9bEZ4jZN1c5o-12" value="예" style="edgeLabel;html=1;align=center;verticalAlign=middle;resizable=0;points=[];" vertex="1" connectable="0" parent="gho8Om7t9bEZ4jZN1c5o-11">
          <mxGeometry x="-0.15" y="-1" relative="1" as="geometry">
            <mxPoint as="offset" />
          </mxGeometry>
        </mxCell>
        <mxCell id="gho8Om7t9bEZ4jZN1c5o-14" value="" style="edgeStyle=orthogonalEdgeStyle;rounded=0;orthogonalLoop=1;jettySize=auto;html=1;" edge="1" parent="1" source="gho8Om7t9bEZ4jZN1c5o-8" target="gho8Om7t9bEZ4jZN1c5o-13">
          <mxGeometry relative="1" as="geometry" />
        </mxCell>
        <mxCell id="gho8Om7t9bEZ4jZN1c5o-15" value="2 or -1" style="edgeLabel;html=1;align=center;verticalAlign=middle;resizable=0;points=[];" vertex="1" connectable="0" parent="gho8Om7t9bEZ4jZN1c5o-14">
          <mxGeometry x="-0.25" y="1" relative="1" as="geometry">
            <mxPoint as="offset" />
          </mxGeometry>
        </mxCell>
        <mxCell id="gho8Om7t9bEZ4jZN1c5o-17" value="" style="edgeStyle=orthogonalEdgeStyle;rounded=0;orthogonalLoop=1;jettySize=auto;html=1;" edge="1" parent="1" source="gho8Om7t9bEZ4jZN1c5o-8" target="gho8Om7t9bEZ4jZN1c5o-16">
          <mxGeometry relative="1" as="geometry" />
        </mxCell>
        <mxCell id="gho8Om7t9bEZ4jZN1c5o-18" value="예외" style="edgeLabel;html=1;align=center;verticalAlign=middle;resizable=0;points=[];" vertex="1" connectable="0" parent="gho8Om7t9bEZ4jZN1c5o-17">
          <mxGeometry x="0.025" relative="1" as="geometry">
            <mxPoint as="offset" />
          </mxGeometry>
        </mxCell>
        <mxCell id="gho8Om7t9bEZ4jZN1c5o-8" value="사용자 - 컴퓨터 = -2 or 1?" style="rhombus;whiteSpace=wrap;html=1;" vertex="1" parent="1">
          <mxGeometry x="200" y="730" width="80" height="80" as="geometry" />
        </mxCell>
        <mxCell id="gho8Om7t9bEZ4jZN1c5o-23" value="" style="edgeStyle=orthogonalEdgeStyle;rounded=0;orthogonalLoop=1;jettySize=auto;html=1;" edge="1" parent="1" source="gho8Om7t9bEZ4jZN1c5o-10" target="gho8Om7t9bEZ4jZN1c5o-22">
          <mxGeometry relative="1" as="geometry" />
        </mxCell>
        <mxCell id="gho8Om7t9bEZ4jZN1c5o-10" value="사용자 승리&lt;div&gt;사용자 1승 적립&lt;/div&gt;" style="ellipse;whiteSpace=wrap;html=1;" vertex="1" parent="1">
          <mxGeometry x="200" y="890" width="80" height="80" as="geometry" />
        </mxCell>
        <mxCell id="gho8Om7t9bEZ4jZN1c5o-24" style="edgeStyle=orthogonalEdgeStyle;rounded=0;orthogonalLoop=1;jettySize=auto;html=1;entryX=1;entryY=0.5;entryDx=0;entryDy=0;exitX=0.5;exitY=1;exitDx=0;exitDy=0;" edge="1" parent="1" source="gho8Om7t9bEZ4jZN1c5o-13" target="gho8Om7t9bEZ4jZN1c5o-22">
          <mxGeometry relative="1" as="geometry" />
        </mxCell>
        <mxCell id="gho8Om7t9bEZ4jZN1c5o-13" value="컴퓨터 승리&amp;nbsp;&lt;div&gt;컴퓨터 1승 적립&lt;/div&gt;" style="ellipse;whiteSpace=wrap;html=1;" vertex="1" parent="1">
          <mxGeometry x="360" y="730" width="80" height="80" as="geometry" />
        </mxCell>
        <mxCell id="gho8Om7t9bEZ4jZN1c5o-16" value="무승부" style="ellipse;whiteSpace=wrap;html=1;" vertex="1" parent="1">
          <mxGeometry x="40" y="730" width="80" height="80" as="geometry" />
        </mxCell>
        <mxCell id="gho8Om7t9bEZ4jZN1c5o-22" value="먼저 2승을 한 측 승리" style="whiteSpace=wrap;html=1;" vertex="1" parent="1">
          <mxGeometry x="180" y="1060" width="120" height="60" as="geometry" />
        </mxCell>
      </root>
    </mxGraphModel>
  </diagram>
</mxfile>
